Normalized EMG Linear Envelopes
nRows=54
nColumns=17

endheader
time	        VM	        VL	        RF	       GRA	        TA	   ADDLONG	   SEMIMEM	      BFLH	        GM	        GL	       TFL	   GLUTMAX	   GLUTMED	      PIRI	    OBTINT	        QF	
2.89	  0.385900	  0.286694	  0.062022	  0.122441	  0.101270	  0.070577	  0.175825	  0.222188	  0.878384	  0.562671	  0.100949	  0.255993	  0.274399	  0.675753	  1.819258	  0.471803	
2.8905	  0.379938	  0.281601	  0.061540	  0.121617	  0.101004	  0.071342	  0.174300	  0.219825	  0.874313	  0.561400	  0.100098	  0.251753	  0.277539	  0.674945	  1.832100	  0.468981	
2.891	  0.374002	  0.276531	  0.061065	  0.120836	  0.100735	  0.072133	  0.172774	  0.217457	  0.870152	  0.560043	  0.099249	  0.247526	  0.280763	  0.674060	  1.844846	  0.466186	
2.8915	  0.368093	  0.271487	  0.060595	  0.120100	  0.100462	  0.072949	  0.171248	  0.215085	  0.865904	  0.558602	  0.098403	  0.243314	  0.284072	  0.673095	  1.857483	  0.463418	
2.892	  0.362212	  0.266469	  0.060132	  0.119410	  0.100187	  0.073790	  0.169720	  0.212711	  0.861571	  0.557077	  0.097560	  0.239117	  0.287467	  0.672049	  1.869997	  0.460677	
2.8925	  0.356362	  0.261480	  0.059675	  0.118764	  0.099909	  0.074657	  0.168192	  0.210334	  0.857155	  0.555470	  0.096721	  0.234939	  0.290951	  0.670918	  1.882377	  0.457965	
2.893	  0.350543	  0.256519	  0.059225	  0.118164	  0.099628	  0.075549	  0.166662	  0.207956	  0.852660	  0.553781	  0.095885	  0.230779	  0.294525	  0.669702	  1.894608	  0.455282	
2.8935	  0.344757	  0.251590	  0.058782	  0.117611	  0.099345	  0.076467	  0.165131	  0.205578	  0.848088	  0.552013	  0.095054	  0.226640	  0.298189	  0.668398	  1.906677	  0.452628	
2.894	  0.339004	  0.246693	  0.058345	  0.117104	  0.099061	  0.077410	  0.163600	  0.203201	  0.843442	  0.550166	  0.094228	  0.222522	  0.301945	  0.667002	  1.918570	  0.450005	
2.8945	  0.333287	  0.241829	  0.057915	  0.116643	  0.098775	  0.078378	  0.162068	  0.200826	  0.838725	  0.548242	  0.093406	  0.218428	  0.305795	  0.665514	  1.930272	  0.447414	
2.895	  0.327606	  0.237001	  0.057493	  0.116230	  0.098488	  0.079372	  0.160534	  0.198454	  0.833940	  0.546241	  0.092590	  0.214357	  0.309739	  0.663930	  1.941768	  0.444854	
2.8955	  0.321964	  0.232209	  0.057078	  0.115864	  0.098201	  0.080391	  0.159001	  0.196084	  0.829088	  0.544166	  0.091779	  0.210312	  0.313778	  0.662248	  1.953042	  0.442328	
2.896	  0.316361	  0.227454	  0.056669	  0.115545	  0.097912	  0.081435	  0.157467	  0.193719	  0.824172	  0.542016	  0.090974	  0.206293	  0.317913	  0.660467	  1.964079	  0.439835	
2.8965	  0.310799	  0.222738	  0.056269	  0.115274	  0.097623	  0.082504	  0.155934	  0.191359	  0.819194	  0.539793	  0.090176	  0.202302	  0.322146	  0.658586	  1.974861	  0.437377	
2.897	  0.305279	  0.218062	  0.055875	  0.115052	  0.097334	  0.083597	  0.154401	  0.189005	  0.814156	  0.537498	  0.089383	  0.198339	  0.326477	  0.656603	  1.985371	  0.434955	
2.8975	  0.299803	  0.213426	  0.055490	  0.114877	  0.097045	  0.084716	  0.152868	  0.186656	  0.809059	  0.535131	  0.088597	  0.194406	  0.330907	  0.654519	  1.995594	  0.432568	
2.898	  0.294372	  0.208832	  0.055112	  0.114751	  0.096756	  0.085859	  0.151337	  0.184315	  0.803907	  0.532694	  0.087818	  0.190504	  0.335436	  0.652334	  2.005510	  0.430220	
2.8985	  0.288988	  0.204281	  0.054741	  0.114673	  0.096468	  0.087026	  0.149807	  0.181982	  0.798700	  0.530187	  0.087046	  0.186633	  0.340067	  0.650049	  2.015106	  0.427910	
2.899	  0.283651	  0.199773	  0.054379	  0.114643	  0.096179	  0.088216	  0.148279	  0.179656	  0.793440	  0.527611	  0.086281	  0.182795	  0.344800	  0.647663	  2.024364	  0.425639	
2.8995	  0.278364	  0.195310	  0.054024	  0.114663	  0.095892	  0.089431	  0.146753	  0.177339	  0.788128	  0.524968	  0.085523	  0.178990	  0.349635	  0.645180	  2.033271	  0.423410	
2.9	  0.273126	  0.190892	  0.053677	  0.114731	  0.095605	  0.090669	  0.145228	  0.175032	  0.782765	  0.522259	  0.084773	  0.175219	  0.354574	  0.642601	  2.041813	  0.421224	
2.9005	  0.267938	  0.186519	  0.053339	  0.114848	  0.095319	  0.091930	  0.143707	  0.172734	  0.777353	  0.519485	  0.084030	  0.171483	  0.359618	  0.639926	  2.049979	  0.419082	
2.901	  0.262803	  0.182193	  0.053008	  0.115013	  0.095033	  0.093214	  0.142188	  0.170446	  0.771893	  0.516647	  0.083295	  0.167784	  0.364767	  0.637160	  2.057761	  0.416985	
2.9015	  0.257720	  0.177915	  0.052685	  0.115227	  0.094749	  0.094520	  0.140673	  0.168169	  0.766385	  0.513748	  0.082568	  0.164120	  0.370022	  0.634302	  2.065150	  0.414935	
2.902	  0.252690	  0.173684	  0.052370	  0.115490	  0.094467	  0.095848	  0.139162	  0.165903	  0.760829	  0.510788	  0.081849	  0.160494	  0.375385	  0.631356	  2.072143	  0.412933	
2.9025	  0.247715	  0.169502	  0.052063	  0.115801	  0.094186	  0.097198	  0.137655	  0.163648	  0.755227	  0.507769	  0.081138	  0.156906	  0.380855	  0.628324	  2.078735	  0.410981	
2.903	  0.242793	  0.165369	  0.051763	  0.116161	  0.093907	  0.098569	  0.136152	  0.161405	  0.749578	  0.504691	  0.080436	  0.153357	  0.386433	  0.625207	  2.084924	  0.409078	
2.9035	  0.237927	  0.161286	  0.051472	  0.116569	  0.093630	  0.099960	  0.134654	  0.159174	  0.743883	  0.501557	  0.079742	  0.149847	  0.392120	  0.622007	  2.090706	  0.407228	
2.904	  0.233116	  0.157252	  0.051188	  0.117026	  0.093356	  0.101372	  0.133161	  0.156955	  0.738142	  0.498367	  0.079056	  0.146377	  0.397916	  0.618726	  2.096082	  0.405430	
2.9045	  0.228362	  0.153270	  0.050912	  0.117530	  0.093084	  0.102804	  0.131674	  0.154750	  0.732354	  0.495122	  0.078379	  0.142947	  0.403820	  0.615365	  2.101051	  0.403686	
2.905	  0.223663	  0.149338	  0.050643	  0.118082	  0.092815	  0.104254	  0.130194	  0.152557	  0.726519	  0.491823	  0.077711	  0.139558	  0.409835	  0.611926	  2.105617	  0.401997	
2.9055	  0.219021	  0.145458	  0.050382	  0.118682	  0.092550	  0.105723	  0.128719	  0.150378	  0.720636	  0.488472	  0.077051	  0.136210	  0.415958	  0.608412	  2.109783	  0.400364	
2.906	  0.214436	  0.141630	  0.050129	  0.119329	  0.092288	  0.107210	  0.127251	  0.148212	  0.714707	  0.485069	  0.076401	  0.132904	  0.422191	  0.604824	  2.113552	  0.398789	
2.9065	  0.209907	  0.137854	  0.049882	  0.120023	  0.092030	  0.108715	  0.125791	  0.146061	  0.708729	  0.481615	  0.075759	  0.129640	  0.428534	  0.601164	  2.116929	  0.397273	
2.907	  0.205436	  0.134131	  0.049643	  0.120764	  0.091776	  0.110235	  0.124337	  0.143924	  0.702703	  0.478112	  0.075127	  0.126419	  0.434987	  0.597436	  2.119918	  0.395816	
2.9075	  0.201022	  0.130461	  0.049410	  0.121552	  0.091526	  0.111772	  0.122892	  0.141802	  0.696629	  0.474559	  0.074504	  0.123241	  0.441549	  0.593640	  2.122525	  0.394420	
2.908	  0.196665	  0.126843	  0.049184	  0.122385	  0.091281	  0.113324	  0.121453	  0.139695	  0.690506	  0.470958	  0.073891	  0.120106	  0.448221	  0.589781	  2.124753	  0.393085	
2.9085	  0.192365	  0.123279	  0.048965	  0.123264	  0.091041	  0.114891	  0.120023	  0.137603	  0.684334	  0.467310	  0.073287	  0.117014	  0.455001	  0.585860	  2.126608	  0.391813	
2.909	  0.188122	  0.119768	  0.048751	  0.124188	  0.090806	  0.116472	  0.118601	  0.135527	  0.678113	  0.463615	  0.072693	  0.113966	  0.461890	  0.581881	  2.128093	  0.390603	
2.9095	  0.183937	  0.116311	  0.048544	  0.125156	  0.090577	  0.118065	  0.117188	  0.133467	  0.671843	  0.459876	  0.072109	  0.110962	  0.468887	  0.577848	  2.129213	  0.389457	
2.91	  0.179807	  0.112907	  0.048343	  0.126169	  0.090354	  0.119671	  0.115783	  0.131425	  0.665524	  0.456093	  0.071535	  0.108002	  0.475992	  0.573762	  2.129970	  0.388375	
2.9105	  0.175735	  0.109557	  0.048148	  0.127225	  0.090137	  0.121288	  0.114387	  0.129399	  0.659156	  0.452267	  0.070971	  0.105087	  0.483202	  0.569628	  2.130367	  0.387358	
2.911	  0.171719	  0.106261	  0.047958	  0.128325	  0.089926	  0.122915	  0.113000	  0.127391	  0.652740	  0.448400	  0.070416	  0.102216	  0.490519	  0.565449	  2.130406	  0.386405	
2.9115	  0.167759	  0.103018	  0.047773	  0.129467	  0.089722	  0.124553	  0.111624	  0.125401	  0.646278	  0.444493	  0.069872	  0.099389	  0.497939	  0.561228	  2.130089	  0.385517	
2.912	  0.163856	  0.099829	  0.047592	  0.130651	  0.089525	  0.126198	  0.110257	  0.123430	  0.639769	  0.440546	  0.069339	  0.096607	  0.505463	  0.556969	  2.129416	  0.384693	
2.9125	  0.160009	  0.096694	  0.047417	  0.131876	  0.089334	  0.127852	  0.108902	  0.121478	  0.633217	  0.436561	  0.068815	  0.093870	  0.513089	  0.552676	  2.128388	  0.383935	
2.913	  0.156218	  0.093612	  0.047246	  0.133142	  0.089151	  0.129512	  0.107557	  0.119546	  0.626621	  0.432540	  0.068302	  0.091177	  0.520815	  0.548351	  2.127005	  0.383242	
2.9135	  0.152483	  0.090584	  0.047078	  0.134447	  0.088976	  0.131178	  0.106224	  0.117634	  0.619984	  0.428482	  0.067800	  0.088528	  0.528639	  0.543998	  2.125267	  0.382614	
2.914	  0.148804	  0.087609	  0.046915	  0.135792	  0.088808	  0.132848	  0.104903	  0.115741	  0.613309	  0.424388	  0.067308	  0.085925	  0.536560	  0.539619	  2.123173	  0.382051	
2.9145	  0.145181	  0.084687	  0.046754	  0.137176	  0.088647	  0.134523	  0.103596	  0.113870	  0.606597	  0.420261	  0.066827	  0.083365	  0.544576	  0.535217	  2.120722	  0.381553	
2.915	  0.141614	  0.081818	  0.046597	  0.138597	  0.088494	  0.136199	  0.102301	  0.112019	  0.599852	  0.416099	  0.066357	  0.080851	  0.552685	  0.530794	  2.117912	  0.381119	
2.9155	  0.138102	  0.079002	  0.046443	  0.140055	  0.088349	  0.137877	  0.101021	  0.110189	  0.593076	  0.411904	  0.065898	  0.078380	  0.560885	  0.526354	  2.114739	  0.380750	
2.916	  0.134645	  0.076238	  0.046290	  0.141549	  0.088212	  0.139556	  0.099755	  0.108381	  0.586273	  0.407677	  0.065450	  0.075954	  0.569173	  0.521899	  2.111203	  0.380444	
2.9165	  0.131244	  0.073526	  0.046140	  0.143078	  0.088083	  0.141233	  0.098504	  0.106595	  0.579445	  0.403418	  0.065013	  0.073572	  0.577547	  0.517431	  2.107298	  0.380201	
